<svg width="30" height="30" viewBox="0 0 15 21" fill="none" xmlns="http://www.w3.org/2000/svg">
<path fill-rule="evenodd" clip-rule="evenodd" d="M14.5 0.788777C10.6851 2.36182 8 6.11734 8 10.5C8 14.8827 10.6851 18.6382 14.5 20.2112C13.2672 20.7196 11.9163 21 10.5 21C4.70101 21 0 16.299 0 10.5C0 4.70101 4.70101 0 10.5 0C11.9163 0 13.2672 0.280423 14.5 0.788777Z" fill="white"/>
<path fill-rule="evenodd" clip-rule="evenodd" d="M14.5 0.788788C10.6851 2.36182 8 6.11734 8 10.5C8 14.8827 10.6851 18.6382 14.5 20.2112C13.2672 20.7196 11.9163 21 10.5 21C4.70101 21 0 16.299 0 10.5C0 4.70102 4.70101 0 10.5 0C11.9163 0 13.2672 0.280426 14.5 0.788788Z" fill="white" fill-opacity="0.2"/>
</svg>
